<?xml version="1.0"?>
<svg version="1.1" xmlns="http://www.w3.org/2000/svg" width="100" height="75">
    <desc iVinci="yes" version="4.6" gridStep="20" showGrid="no" snapToGrid="no" codePlatform="0"/>
    <g id="Layer1" name="Layer 1" opacity="1">
        <g id="Shape1">
            <desc shapeID="1" type="2" basicInfo-basicType="0" basicInfo-roundedRectRadius="12"
                  basicInfo-polygonSides="6" basicInfo-starPoints="5" bounding="rect(-21.369,-31.2327,42.7381,62.4654)"
                  text="{" font-familyName="Arial" font-pixelSize="50" font-bold="0" font-underline="0"
                  font-alignment="1" strokeStyle="0" markerStart="0" markerEnd="0" shadowEnabled="0" shadowOffsetX="0"
                  shadowOffsetY="2" shadowBlur="4" shadowOpacity="160" blurEnabled="0" blurRadius="4"
                  transform="matrix(0.965294,-0.261166,0.261166,0.965294,20.2262,31.5847)" pers-center="0,0"
                  pers-size="0,0" pers-start="0,0" pers-end="0,0" locked="0" mesh="" flag=""/>
            <path id="shapePath1"
                  d="M14.0611,35.4176 C15.2624,35.0589 16.16,34.4662 16.7541,33.6394 C17.3482,32.8127 17.6243,31.8232 17.5824,30.6712 C17.5404,29.5191 17.1724,27.629 16.4782,25.001 C15.7841,22.373 15.3636,20.632 15.2169,19.7781 C15.0012,18.4201 14.9775,17.2884 15.1456,16.383 C15.3137,15.4775 15.6158,14.7087 16.0517,14.0765 C16.4877,13.4443 17.1116,12.8835 17.9234,12.3941 C18.4779,12.0754 19.4307,11.7333 20.7819,11.3677 L22.1016,11.0107 L23.1027,14.7107 L22.3721,14.9083 C20.7382,15.3504 19.7338,15.9383 19.359,16.672 C18.9842,17.4057 19.0731,18.7937 19.6257,20.8362 C20.7394,24.9525 21.3565,27.5761 21.477,28.7069 C21.649,30.4645 21.5166,31.8914 21.0797,32.9876 C20.6428,34.0837 19.7894,35.183 18.5196,36.2853 C20.4433,36.5404 21.9949,37.3051 23.1743,38.5794 C24.3537,39.8537 25.4004,42.1798 26.3143,45.5577 C27.1432,48.6214 27.6677,50.4354 27.8878,50.9997 C28.3026,52.034 28.8226,52.6943 29.448,52.9803 C30.0734,53.2664 31.1324,53.2075 32.6249,52.8037 L33.3555,52.606 L34.3565,56.306 L33.0368,56.663 C31.4971,57.0796 30.3476,57.2557 29.5883,57.1914 C28.485,57.1021 27.494,56.7421 26.6152,56.1115 C25.7364,55.4809 25.0309,54.5716 24.4987,53.3836 C23.9665,52.1955 23.31,50.1896 22.5292,47.3659 C21.7483,44.5421 21.0856,42.6222 20.5409,41.6061 C19.9962,40.5901 19.2579,39.8709 18.3258,39.4486 C17.3938,39.0263 16.3187,38.9631 15.1004,39.259 L14.0611,35.4176 Z"
                  style="stroke:none;fill-rule:nonzero;fill:#000000;fill-opacity:1;"/>
        </g>
        <g id="Shape2">
            <desc shapeID="2" type="2" basicInfo-basicType="0" basicInfo-roundedRectRadius="12"
                  basicInfo-polygonSides="6" basicInfo-starPoints="5" bounding="rect(-20.7156,-28.9413,41.4313,57.8825)"
                  text="}" font-familyName="Arial" font-pixelSize="50" font-bold="0" font-underline="0"
                  font-alignment="1" strokeStyle="0" markerStart="0" markerEnd="0" shadowEnabled="0" shadowOffsetX="0"
                  shadowOffsetY="2" shadowBlur="4" shadowOpacity="160" blurEnabled="0" blurRadius="4"
                  transform="matrix(0.958831,0.283977,-0.283977,0.958831,74.5234,31.568)" pers-center="0,0"
                  pers-size="0,0" pers-start="0,0" pers-end="0,0" locked="0" mesh="" flag=""/>
            <path id="shapePath2"
                  d="M80.5039,35.8121 L79.3738,39.6278 C78.1629,39.3031 77.0865,39.3408 76.1448,39.7409 C75.203,40.1409 74.449,40.8385 73.8826,41.8336 C73.3163,42.8286 72.6395,44.6269 71.852,47.2285 C71.0645,49.8301 70.5092,51.5329 70.1862,52.3369 C69.6529,53.6218 69.0784,54.6017 68.4626,55.2765 C67.8469,55.9514 67.1876,56.4436 66.4848,56.7532 C65.782,57.0628 64.9567,57.213 64.0088,57.2039 C63.3649,57.1999 62.3719,56.9992 61.0298,56.6017 L59.7189,56.2134 L60.8074,52.5382 L61.5331,52.7532 C63.1561,53.2339 64.3196,53.2602 65.0235,52.8321 C65.7274,52.404 66.3821,51.1678 66.9876,49.1234 C68.1431,45.2219 68.9459,42.7692 69.3961,41.7652 C70.1588,40.1068 71.0684,38.8697 72.1249,38.0538 C73.1813,37.2378 74.4817,36.7445 76.0261,36.5738 C74.4856,35.184 73.5577,33.6743 73.2426,32.0447 C72.9274,30.4151 73.2666,27.9227 74.2604,24.5674 C75.1617,21.5242 75.6611,19.6946 75.7587,19.0784 C75.9592,18.0005 75.867,17.1796 75.4823,16.6159 C75.0976,16.0521 74.164,15.5506 72.6814,15.1116 L71.9557,14.8966 L73.0442,11.2214 L74.3551,11.6097 C75.8845,12.0626 76.9555,12.5156 77.5683,12.9687 C78.4653,13.6078 79.1215,14.4302 79.5366,15.4359 C79.9517,16.4415 80.0742,17.5896 79.9041,18.8803 C79.7341,20.1709 79.2408,22.2231 78.4245,25.0368 C77.6081,27.8505 77.1665,29.8288 77.0996,30.9718 C77.0327,32.1148 77.2852,33.1105 77.8572,33.9589 C78.4292,34.8073 79.3114,35.425 80.5039,35.8121 Z"
                  style="stroke:none;fill-rule:nonzero;fill:#000000;fill-opacity:1;"/>
        </g>
        <g id="Shape3">
            <desc shapeID="3" type="0" basicInfo-basicType="4" basicInfo-roundedRectRadius="12"
                  basicInfo-polygonSides="6" basicInfo-starPoints="5" bounding="rect(-23,-23,45.9999,45.9999)" text=""
                  font-familyName="Arial" font-pixelSize="200" font-bold="0" font-underline="0" font-alignment="1"
                  strokeStyle="0" markerStart="0" markerEnd="0" shadowEnabled="0" shadowOffsetX="0" shadowOffsetY="2"
                  shadowBlur="4" shadowOpacity="160" blurEnabled="0" blurRadius="4"
                  transform="matrix(0.331502,0,0,0.331502,14.0611,57.2043)" pers-center="0,0" pers-size="0,0"
                  pers-start="0,0" pers-end="0,0" locked="0" mesh="" flag=""/>
            <path id="shapePath3"
                  d="M6.43658,57.2043 C6.43658,52.9933 9.85007,49.5798 14.0611,49.5798 C18.2719,49.5798 21.6856,52.9935 21.6856,57.2043 C21.6856,61.4151 18.2719,64.8288 14.0611,64.8288 C9.85007,64.8288 6.43658,61.4151 6.43658,57.2043 Z"
                  style="stroke:#323232;stroke-opacity:1;stroke-width:3.5;stroke-linejoin:miter;stroke-miterlimit:2;stroke-linecap:round;fill-rule:evenodd;fill:#ffffff;fill-opacity:1;"/>
        </g>
        <g id="Shape4">
            <desc shapeID="4" type="2" basicInfo-basicType="0" basicInfo-roundedRectRadius="12"
                  basicInfo-polygonSides="6" basicInfo-starPoints="5" bounding="rect(-33.8137,-24.4997,67.6274,48.9995)"
                  text="lurry" font-familyName="Helvetica" font-pixelSize="25" font-bold="0" font-underline="0"
                  font-alignment="1" strokeStyle="0" markerStart="0" markerEnd="0" shadowEnabled="0" shadowOffsetX="0"
                  shadowOffsetY="2" shadowBlur="4" shadowOpacity="160" blurEnabled="0" blurRadius="4"
                  transform="matrix(0.928759,-0.370683,0.370683,0.928759,50.2161,34.9154)" pers-center="0,0"
                  pers-size="0,0" pers-start="0,0" pers-end="0,0" locked="0" mesh="" flag=""/>
            <path id="shapePath4"
                  d="M25.0786,32.9251 L27.1193,32.1106 L33.7665,48.7653 L31.7257,49.5798 L25.0786,32.9251 M34.0153,34.5894 L37.2325,42.6503 C37.4799,43.2701 37.7803,43.7373 38.1336,44.0519 C38.786,44.6327 39.6073,44.7255 40.5974,44.3303 C42.0184,43.7632 42.7324,42.7421 42.7396,41.2672 C42.7478,40.4754 42.515,39.4861 42.0414,38.2995 L39.6613,32.336 L41.702,31.5215 L46.5483,43.6638 L44.6209,44.4331 L43.9286,42.6327 C43.8481,43.1994 43.6747,43.7198 43.4083,44.1941 C42.8832,45.1398 42.0652,45.8343 40.9541,46.2777 C39.2233,46.9685 37.8134,46.8609 36.7245,45.9549 C36.137,45.4709 35.6366,44.7111 35.2234,43.6756 L31.9292,35.422 L34.0153,34.5894 M44.9323,30.2323 L46.871,29.4585 L47.7081,31.5559 C47.7039,31.0844 47.8948,30.4321 48.2808,29.599 C48.6668,28.7658 49.2642,28.1879 50.0729,27.8651 C50.1107,27.85 50.1765,27.8282 50.2702,27.7995 C50.3639,27.7709 50.5249,27.7242 50.7531,27.6593 L51.6128,29.8134 C51.4829,29.839 51.3653,29.8684 51.2603,29.9016 C51.1552,29.9348 51.0422,29.9755 50.9213,30.0237 C49.8934,30.434 49.2355,31.0799 48.9477,31.9615 C48.6599,32.843 48.688,33.7146 49.0319,34.5763 L51.8192,41.5601 L49.7785,42.3746 L44.9323,30.2323 M52.6526,27.1509 L54.5913,26.3772 L55.4284,28.4746 C55.4242,28.0031 55.6151,27.3508 56.0011,26.5177 C56.3871,25.6845 56.9845,25.1066 57.7932,24.7838 C57.831,24.7687 57.8968,24.7469 57.9905,24.7182 C58.0842,24.6896 58.2452,24.6428 58.4734,24.578 L59.3332,26.7321 C59.2032,26.7577 59.0857,26.7871 58.9806,26.8203 C58.8755,26.8534 58.7626,26.8942 58.6416,26.9424 C57.6137,27.3527 56.9558,27.9986 56.668,28.8802 C56.3802,29.7617 56.4083,30.6333 56.7522,31.495 L59.5396,38.4788 L57.4988,39.2933 L52.6526,27.1509 M67.9009,21.0651 L70.1571,20.1646 C70.1806,21.0578 70.2508,23.0888 70.3678,26.2579 C70.4597,28.6396 70.5186,30.5876 70.5447,32.1018 C70.6024,35.6713 70.5252,37.8927 70.3129,38.766 C70.1007,39.6393 69.405,40.3113 68.2259,40.7819 C67.9387,40.8965 67.7131,40.9734 67.5491,41.0126 C67.3851,41.0517 67.1777,41.0863 66.9268,41.1164 L66.1847,39.257 C66.5792,39.2135 66.8603,39.1714 67.0281,39.1307 C67.1958,39.0901 67.3402,39.0456 67.4611,38.9973 C67.839,38.8465 68.0919,38.6733 68.2198,38.4777 C68.3476,38.2821 68.4358,38.0694 68.4843,37.8398 C68.498,37.7642 68.5104,37.4 68.5214,36.7472 C68.5325,36.0944 68.5367,35.6108 68.5339,35.2965 L59.0578,24.5945 L61.3706,23.6714 L68.5702,32.259 L67.9009,21.0651 Z"
                  style="stroke:none;fill-rule:nonzero;fill:#000000;fill-opacity:1;"/>
        </g>
        <g id="Shape5">
            <desc shapeID="5" type="2" basicInfo-basicType="0" basicInfo-roundedRectRadius="12"
                  basicInfo-polygonSides="6" basicInfo-starPoints="5" bounding="rect(-22.8468,-19.8348,45.6935,39.6697)"
                  text="sql" font-familyName="Helvetica" font-pixelSize="15" font-bold="0" font-underline="0"
                  font-alignment="1" strokeStyle="0" markerStart="0" markerEnd="0" shadowEnabled="0" shadowOffsetX="0"
                  shadowOffsetY="2" shadowBlur="4" shadowOpacity="160" blurEnabled="0" blurRadius="4"
                  transform="matrix(0.89996,0.435972,-0.435972,0.89996,39.3688,20.2195)" pers-center="0,0"
                  pers-size="0,0" pers-start="0,0" pers-end="0,0" locked="0" mesh="" flag=""/>
            <path id="shapePath5"
                  d="M31.7759,17.9388 C31.6195,18.3514 31.5714,18.7025 31.6319,18.9922 C31.7455,19.5192 32.1714,19.9616 32.9096,20.3192 C33.3491,20.5321 33.7821,20.6238 34.2087,20.5945 C34.6352,20.5651 34.9454,20.3505 35.1391,19.9506 C35.286,19.6474 35.2637,19.3517 35.0723,19.0637 C34.9477,18.884 34.6637,18.608 34.22,18.2358 L33.3924,17.5419 C32.8628,17.1008 32.4998,16.7188 32.3036,16.3959 C31.9493,15.8282 31.9094,15.2609 32.184,14.694 C32.5076,14.0261 33.01,13.6021 33.6913,13.4221 C34.3726,13.2422 35.1197,13.3491 35.9327,13.7429 C36.9961,14.2581 37.6118,14.9416 37.7797,15.7933 C37.8825,16.3314 37.8188,16.8269 37.5886,17.2796 L36.4681,16.7368 C36.576,16.4581 36.5996,16.1684 36.5391,15.8678 C36.4178,15.4239 36.021,15.039 35.3486,14.7133 C34.9004,14.4962 34.5194,14.4174 34.2057,14.477 C33.892,14.5367 33.667,14.7071 33.5308,14.9883 C33.3817,15.2959 33.4141,15.6155 33.6279,15.9469 C33.7505,16.1419 33.9629,16.3642 34.2652,16.6137 L34.957,17.1849 C35.7095,17.8044 36.1839,18.2811 36.3802,18.6149 C36.6948,19.1416 36.6945,19.7302 36.3794,20.3805 C36.075,21.0089 35.5737,21.4361 34.8755,21.6622 C34.1774,21.8882 33.3405,21.765 32.365,21.2924 C31.3147,20.7836 30.6865,20.1849 30.4802,19.4963 C30.2739,18.8077 30.3257,18.1044 30.6356,17.3864 L31.7759,17.9388 M38.6887,21.6783 C38.6364,22.559 39.0014,23.1889 39.7836,23.5678 C40.6097,23.968 41.3661,23.857 42.0528,23.2347 C42.4306,22.8915 42.7803,22.3881 43.1017,21.7245 C43.3976,21.1137 43.5501,20.5582 43.5591,20.058 C43.5768,19.2039 43.1814,18.581 42.3728,18.1893 C41.8587,17.9402 41.3101,17.9499 40.7271,18.2181 C40.1441,18.4864 39.627,19.0863 39.1757,20.0179 C38.8798,20.6287 38.7174,21.1822 38.6887,21.6783 M44.0244,18.2407 C44.1675,18.5053 44.2656,18.8404 44.3187,19.2459 L44.7945,18.2638 L45.9217,18.8098 L41.1383,28.6839 L39.9453,28.1059 L41.7015,24.4806 C41.3505,24.7012 40.955,24.8203 40.5152,24.8378 C40.0754,24.8553 39.594,24.7374 39.0711,24.4841 C38.3197,24.1201 37.79,23.4999 37.482,22.6237 C37.174,21.7475 37.3117,20.7074 37.8949,19.5033 C38.442,18.374 39.1691,17.5814 40.0763,17.1256 C40.9834,16.6699 41.8786,16.6559 42.7619,17.0838 C43.3463,17.3669 43.7672,17.7525 44.0244,18.2407 M48.9661,17.0456 L50.1526,17.6203 L45.4618,27.3033 L44.2753,26.7285 L48.9661,17.0456 Z"
                  style="stroke:none;fill-rule:nonzero;fill:#000000;fill-opacity:1;"/>
        </g>
        <g id="Shape6">
            <desc shapeID="6" type="0" basicInfo-basicType="4" basicInfo-roundedRectRadius="12"
                  basicInfo-polygonSides="6" basicInfo-starPoints="5" bounding="rect(-23,-23,45.9999,45.9999)" text=""
                  font-familyName="Arial" font-pixelSize="200" font-bold="0" font-underline="0" font-alignment="1"
                  strokeStyle="0" markerStart="0" markerEnd="0" shadowEnabled="0" shadowOffsetX="0" shadowOffsetY="2"
                  shadowBlur="4" shadowOpacity="160" blurEnabled="0" blurRadius="4"
                  transform="matrix(0.331502,0,0,0.331502,80.5039,57.2043)" pers-center="0,0" pers-size="0,0"
                  pers-start="0,0" pers-end="0,0" locked="0" mesh="" flag=""/>
            <path id="shapePath6"
                  d="M72.8793,57.2043 C72.8793,52.9933 76.2928,49.5798 80.5039,49.5798 C84.7147,49.5798 88.1284,52.9935 88.1284,57.2043 C88.1284,61.4151 84.7147,64.8288 80.5039,64.8288 C76.2928,64.8288 72.8793,61.4151 72.8793,57.2043 Z"
                  style="stroke:#323232;stroke-opacity:1;stroke-width:3.5;stroke-linejoin:miter;stroke-miterlimit:2;stroke-linecap:round;fill-rule:evenodd;fill:#ffffff;fill-opacity:1;"/>
        </g>
    </g>
</svg>
